PathFileType	4	(X/Y/Z)	C:\Users\Basilio\Documents\Thesis Gigler\squatting_fais\c3dfiles\040\SJ_pre5\markers_experimental.trc
DataRate	CameraRate	NumFrames	NumMarkers	Units	OrigDataRate	OrigDataStartFrame	OrigNumFrames
200.000000	200.000000	4	62	mm	200.000000	145	1165
Frame#	Time	FHD			LBHD			RBHD			C7			T10			CLAV			LSHO			LUUPA			LMUPA			LDUPA			LLEP			LMEP			LRAD			LUL			LRFIN			RSHO			RUPA1			RMUPA			RDUPA			RLEP			RMEP			RRAD			RUL			RUFIN			LASI			RASI			USACR			LSACR			RSACR			LTHI1			LTHI2			LTHI3			LTHI4			LLFC			LMFC			LTIB1			LTIB2			LTIB3			LTIB4			LLMAL			LMMAL			LHEE			LMT1			LMT2			LMT5			RTHI			RTHI2			RTHI3			RTHI4			RLFC			RMFC			RTIB1			RTIB2			RTIB3			RTIB4			RLMAL			RMMAL			RHEE			RMT1			RMT2			RMT5			*61			
		X1	Y1	Z1	X2	Y2	Z2	X3	Y3	Z3	X4	Y4	Z4	X5	Y5	Z5	X6	Y6	Z6	X7	Y7	Z7	X8	Y8	Z8	X9	Y9	Z9	X10	Y10	Z10	X11	Y11	Z11	X12	Y12	Z12	X13	Y13	Z13	X14	Y14	Z14	X15	Y15	Z15	X16	Y16	Z16	X17	Y17	Z17	X18	Y18	Z18	X19	Y19	Z19	X20	Y20	Z20	X21	Y21	Z21	X22	Y22	Z22	X23	Y23	Z23	X24	Y24	Z24	X25	Y25	Z25	X26	Y26	Z26	X27	Y27	Z27	X28	Y28	Z28	X29	Y29	Z29	X30	Y30	Z30	X31	Y31	Z31	X32	Y32	Z32	X33	Y33	Z33	X34	Y34	Z34	X35	Y35	Z35	X36	Y36	Z36	X37	Y37	Z37	X38	Y38	Z38	X39	Y39	Z39	X40	Y40	Z40	X41	Y41	Z41	X42	Y42	Z42	X43	Y43	Z43	X44	Y44	Z44	X45	Y45	Z45	X46	Y46	Z46	X47	Y47	Z47	X48	Y48	Z48	X49	Y49	Z49	X50	Y50	Z50	X51	Y51	Z51	X52	Y52	Z52	X53	Y53	Z53	X54	Y54	Z54	X55	Y55	Z55	X56	Y56	Z56	X57	Y57	Z57	X58	Y58	Z58	X59	Y59	Z59	X60	Y60	Z60	X61	Y61	Z61	X62	Y62	Z62	

146	0.725	-186.9324798583985	1740.259765625	-917.5857543945315	-315.2555236816407	1698.3017578125	-956.6414184570315	-366.8336791992188	1662.328735351563	-823.5787353515627	-392.9405517578126	1548.579956054688	-879.2928466796877	-449.6769104003907	1226.80908203125	-871.3686523437502	-271.5427551269532	1466.658325195313	-867.7257080078127	-297.9256896972657	1512.584106445313	-1046.100219726563	-353.3273620605469	1379.942504882813	-1202.099487304688	-342.3375244140626	1332.633178710938	-1192.619750976563	-374.2903442382813	1328.196411132813	-1243.669799804688	-401.7265930175782	1281.13037109375	-1285.47314453125	-471.1939697265626	1283.534545898438	-1252.506958007813	-417.440399169922	1057.521240234375	-1096.703247070313	-364.2133789062501	1027.418090820313	-1141.7236328125	-369.5108032226563	1069.0791015625	-1052.203002929688	-320.7655639648438	1500.364135742188	-695.6162109375001	-432.1591186523439	1402.378662109375	-549.2872314453126	-410.111541748047	1358.406982421875	-538.9105224609376	-457.988006591797	1356.323974609375	-503.2133178710939	-472.237762451172	1296.6484375	-464.2990722656251	-534.7574462890626	1277.853271484375	-519.4506225585939	-386.775360107422	1087.930786132813	-638.6967163085939	-349.0077819824219	1059.017944335938	-580.4664916992189	-332.0974426269532	1094.354614257813	-680.2482299804689	-276.9886779785157	1036.338745117188	-967.6682128906252	-280.5224609375001	1036.1162109375	-744.6615600585939	-463.7718505859376	1094.427856445313	-858.7766113281252	-471.8945312500001	1064.82275390625	-885.1088867187502	-474.1646118164064	1066.806762695313	-830.0396728515627	-426.4154663085939	803.4868774414065	-1057.762084960938	-392.1609802246095	730.6692504882814	-1082.776977539063	-345.7011413574219	734.3699951171876	-1088.939453125	-414.3584594726564	675.6199951171876	-1073.910278320313	-396.1669921875001	545.4400024414064	-1089.167114257813	-377.0211181640626	501.3172302246095	-965.164978027344	-354.0103759765626	320.5712280273438	-1099.785278320313	-428.7132568359376	286.9276733398438	-1134.324951171875	-385.435028076172	279.3136901855469	-1128.894653320313	-368.2707824707032	196.2491607666016	-1111.420532226563	-429.1965942382814	101.6673126220703	-1132.364013671875	-383.8547973632813	108.0242004394532	-1055.348388671875	-475.3768615722657	42.95227050781251	-1085.51611328125	-254.0171356201172	60.60513305664064	-1100.513671875	-261.6345825195313	57.35046005249025	-1146.685302734375	-313.7432556152344	31.04429817199708	-1188.034912109375	-387.4681091308595	798.3592529296877	-646.7156982421876	-361.1558532714844	736.9750976562501	-639.8829345703126	-327.9796142578126	734.1934814453126	-642.5150756835939	-398.711395263672	663.4758300781251	-645.4512329101564	-405.4960327148439	527.8525390625001	-638.2478027343751	-386.136932373047	501.8010559082032	-767.4478149414064	-364.3354797363282	338.2846069335938	-631.2864990234376	-440.773162841797	267.3013000488282	-607.7017211914064	-395.122772216797	260.9546813964844	-609.5501708984376	-376.8711853027344	210.7591705322266	-635.4840087890626	-434.6909484863282	100.8811340332032	-609.5632324218751	-403.1037902832032	104.0495376586914	-693.0564575195314	-484.382537841797	46.78569793701173	-668.8234252929689	-263.2525024414063	57.2270965576172	-633.2062377929689	-275.3345947265626	58.99802017211915	-595.3338623046876	-325.1671752929688	33.73828887939454	-550.0956420898439	nan	nan	nan	
147	0.73	-187.366683959961	1740.332641601563	-917.4717407226565	-315.5007629394532	1698.351806640625	-956.6724243164065	-367.5753784179688	1662.227172851563	-823.6851196289065	-393.1378784179689	1548.290283203125	-879.557067871094	-449.7804260253907	1226.5849609375	-871.442077636719	-271.7405700683594	1466.623291015625	-867.9539794921877	-298.1734008789063	1512.530151367188	-1046.380615234375	-353.7266540527344	1379.472900390625	-1202.186645507813	-342.4625549316407	1332.25048828125	-1192.780883789063	-374.5122375488282	1327.759887695313	-1243.761352539063	-401.7681884765626	1280.67236328125	-1285.52978515625	-471.3509216308595	1282.856201171875	-1252.535522460938	-417.1567687988282	1057.016723632813	-1096.665649414063	-363.9222717285157	1027.004028320313	-1141.533813476563	-369.2947692871094	1068.85400390625	-1052.202514648438	-321.2329101562501	1500.1806640625	-695.9298095703126	-432.364227294922	1401.817626953125	-549.7145996093751	-410.4660949707032	1358.113159179688	-539.3521728515626	-458.2373657226564	1355.789672851563	-503.5372924804689	-472.4040832519532	1296.526733398438	-464.6148376464845	-534.7107543945314	1277.2177734375	-519.7999877929689	-386.581756591797	1087.354370117188	-638.8741455078126	-348.6878662109376	1058.526489257813	-580.5164184570314	-331.8990478515626	1093.867797851563	-680.1675415039064	-276.6401367187501	1036.384399414063	-967.5872802734377	-280.4527893066407	1036.136352539063	-744.5528564453126	-463.7428588867189	1093.874267578125	-858.9361572265627	-471.5021362304689	1064.702758789063	-885.180358886719	-473.8959350585939	1066.635864257813	-830.0864868164065	-425.9621887207032	803.649108886719	-1058.222534179688	-391.7077026367189	730.7702026367189	-1082.990600585938	-345.1875610351563	734.3002319335939	-1088.950439453125	-414.0722961425782	675.7406616210939	-1074.25244140625	-396.2154235839845	545.4354858398439	-1089.298583984375	-377.7561950683594	501.2285766601564	-965.4229736328127	-354.1435546875001	321.4742736816407	-1099.553955078125	-428.7116699218751	286.9171142578126	-1134.537353515625	-385.5076293945314	278.9307556152344	-1129.023315429688	-368.2811889648438	196.2566070556641	-1111.405883789063	-429.1595764160157	101.624496459961	-1132.513671875	-383.9051513671876	108.0582885742188	-1055.438598632813	-475.4048461914064	42.9176368713379	-1085.580932617188	-254.0617370605469	60.64039993286134	-1100.496826171875	-261.6907348632813	57.44569015502931	-1146.626831054688	-313.7279357910157	31.03898239135743	-1188.0224609375	-387.4602966308595	798.327819824219	-646.6649169921876	-361.1547546386719	736.9707641601564	-639.8810424804689	-328.0402526855469	734.1869506835939	-642.5508422851564	-398.8316040039064	663.5839233398439	-645.4431762695314	-405.7776794433595	527.8770751953126	-638.2380981445314	-386.4942016601564	501.8526916503907	-767.4987792968751	-364.4548339843751	338.2431030273438	-631.3497314453126	-440.9519958496095	267.2749328613282	-607.6993408203126	-395.2596740722657	260.9460449218751	-609.5625000000001	-376.4885864257813	211.0509033203126	-634.8710937500001	-434.6579589843751	100.9036254882813	-609.5504760742189	-403.0712890625001	104.0496520996094	-693.0253906250001	-484.3375854492189	46.75880813598634	-668.8607177734376	-263.2295837402344	57.1150588989258	-633.1591186523439	-275.3351745605469	59.00205993652345	-595.3806152343751	-325.1726074218751	33.73392868041993	-550.1422729492189	nan	nan	nan	
148	0.735	-186.4534759521485	1740.65673828125	-917.8537597656252	-315.9079895019532	1698.453247070313	-956.6950683593752	-367.9775695800782	1662.217895507813	-823.8034667968752	-393.385955810547	1548.102905273438	-879.807067871094	-449.7047119140626	1226.427490234375	-871.5030517578127	-271.9230957031251	1466.71484375	-868.1622314453127	-298.3647766113282	1512.448120117188	-1046.644409179688	-353.9018554687501	1379.154541015625	-1202.250244140625	-342.6143493652344	1331.894897460938	-1192.824829101563	-374.5621337890626	1327.2119140625	-1243.89794921875	-401.7939453125001	1280.157836914063	-1285.516357421875	-471.5277709960939	1282.322875976563	-1252.422485351563	-416.927459716797	1056.568481445313	-1096.5703125	-363.7035827636719	1026.575439453125	-1141.1796875	-369.0917358398438	1068.709594726563	-1052.146484375	-321.7020263671876	1500.005859375	-696.3336791992189	-432.9360351562501	1401.342651367188	-550.1403808593751	-410.5550842285157	1357.76611328125	-539.8032226562501	-458.5554504394532	1355.454833984375	-503.807342529297	-472.4743957519532	1296.2939453125	-464.9300537109376	-534.7044677734376	1276.518798828125	-520.1533203125001	-386.701141357422	1086.580932617188	-638.9531250000001	-348.5248107910157	1057.89111328125	-580.4194946289064	-331.9742431640626	1093.547973632813	-680.0708618164064	-276.3717346191407	1036.518676757813	-967.4900512695315	-280.3983764648438	1036.077758789063	-744.5501708984376	-463.5442504882814	1093.814453125	-858.9634399414065	-471.3568420410157	1064.733642578125	-885.2583618164065	-473.8154907226564	1066.604370117188	-830.1439208984377	-425.4153442382814	803.742614746094	-1058.798950195313	-391.2918395996095	730.8754272460939	-1083.430908203125	-344.6254577636719	734.2001342773439	-1088.955444335938	-413.7974548339845	675.7848510742189	-1074.542114257813	-396.2355957031251	545.4946899414064	-1089.467529296875	-378.4158935546876	501.1441040039064	-965.381286621094	-354.1371765136719	321.1396789550782	-1099.635864257813	-428.6649169921876	286.9402465820313	-1134.620483398438	-385.3617553710939	279.2615661621094	-1128.966186523438	-368.2684631347657	196.2266082763672	-1111.389526367188	-429.1466674804689	101.6045989990235	-1132.60302734375	-383.9604187011719	107.9716339111328	-1055.456298828125	-475.4931030273439	42.9414405822754	-1085.557373046875	-254.1429595947266	60.56738281250001	-1100.438232421875	-261.7304687500001	57.470027923584	-1146.66015625	-313.7493591308594	31.09874534606934	-1188.009887695313	-387.4457397460939	798.4400634765627	-646.6441650390626	-361.0946960449219	736.3243408203126	-640.5567626953126	-328.0769042968751	734.1119995117189	-642.6192016601564	-398.9417419433595	663.7658081054689	-645.4872436523439	-406.0574951171876	527.8126831054689	-638.2367553710939	-386.8147888183595	501.8796386718751	-767.5844116210939	-364.7612609863282	338.5589599609376	-631.0863037109376	-441.2188720703126	267.2763366699219	-607.7150268554689	-395.3586425781251	260.8630676269532	-609.5540771484376	-377.0224914550782	210.8459625244141	-635.5329589843751	-434.6901855468751	100.8946990966797	-609.5704345703126	-403.0682067871095	104.0395050048828	-693.0362548828126	-484.3708496093751	46.74014282226563	-668.8501586914064	-263.2669067382813	57.23281860351564	-633.2059326171876	-275.3564147949219	59.08056640625001	-595.3854370117189	-325.1902770996094	33.75268936157227	-550.1439208984376	nan	nan	nan	
149	0.74	-187.958984375	1740.607177734375	-917.3491210937502	-316.2271728515626	1698.562377929688	-956.741882324219	-368.5478210449219	1662.036254882813	-823.897155761719	-393.8467102050782	1547.97998046875	-880.153991699219	-449.775115966797	1226.254760742188	-871.6071777343752	-272.2065734863282	1466.709228515625	-868.3771972656252	-298.8689880371094	1512.496337890625	-1046.853759765625	-354.2455749511719	1378.79833984375	-1202.300048828125	-342.6588439941407	1331.532104492188	-1192.948120117188	-374.6923522949219	1326.865478515625	-1243.985961914063	-402.1001281738282	1279.540283203125	-1285.365844726563	-471.7042236328126	1281.70654296875	-1252.308349609375	-416.5337219238282	1056.183837890625	-1096.419799804688	-363.3219909667969	1026.308959960938	-1141.03564453125	-368.7845458984376	1068.601928710938	-1052.09912109375	-322.1661987304688	1499.955078125	-696.4671630859376	-433.2420043945314	1401.015014648438	-550.5244140625001	-410.7198486328126	1357.462036132813	-540.2214355468751	-458.8389282226564	1354.93408203125	-504.261199951172	-472.3862915039064	1295.591796875	-465.5180664062501	-534.7952880859376	1275.824584960938	-520.5390625000001	-386.6012268066407	1085.982788085938	-638.9091796875001	-348.3227539062501	1057.469482421875	-580.4652099609376	-331.9396972656251	1093.164184570313	-680.0285644531251	-276.0928344726563	1036.6416015625	-967.3450317382815	-280.1897583007813	1036.036499023438	-744.6237182617189	-463.2733764648439	1094.182739257813	-858.9246826171877	-470.9620666503907	1064.789184570313	-885.245788574219	-473.6411132812501	1066.626342773438	-830.161560058594	-425.0119018554689	803.8994750976565	-1059.171264648438	-390.8189697265626	730.7913818359376	-1083.5078125	-344.2521667480469	734.0875244140626	-1088.965698242188	-413.5004272460939	675.7630004882814	-1074.780151367188	-396.280487060547	545.4642944335939	-1089.661865234375	-378.9140319824219	501.0204467773439	-965.3755493164065	-354.0707702636719	321.1127929687501	-1099.571166992188	-428.6190795898439	286.8960876464844	-1134.745361328125	-385.3408813476564	278.7907104492188	-1129.0341796875	-368.2515869140626	196.219223022461	-1111.400634765625	-429.1173095703126	101.5698852539063	-1132.6591796875	-384.0377197265626	107.9858856201172	-1055.59619140625	-475.5423889160157	42.90829849243165	-1085.603637695313	-254.1232299804688	60.61798095703126	-1100.442993164063	-261.7372131347657	57.5756072998047	-1146.6220703125	-313.8458251953126	31.13515281677247	-1187.929565429688	-387.4199829101564	798.382019042969	-646.6405029296876	-361.1106262207032	736.3744506835939	-640.5545043945314	-328.1217346191407	734.0475463867189	-642.7108764648439	-399.0974731445314	663.8047485351564	-645.5591430664064	-406.246307373047	527.7836303710939	-638.3118286132814	-387.0955505371095	501.8787841796876	-767.6815185546876	-365.0452270507813	338.5979003906251	-631.0776977539064	-441.3451232910157	267.2715454101563	-607.7579956054689	-395.6398010253907	260.9012451171876	-609.5861206054689	-376.6751708984376	211.0252990722657	-635.0346069335939	-434.7112121582032	100.8748855590821	-609.5739135742189	-403.0904235839845	104.0659942626953	-693.0712280273439	-484.3985290527345	46.77092361450196	-668.8632812500001	-263.2551269531251	57.13728713989259	-633.1629028320314	-274.8810119628907	59.16979598999025	-594.9109497070314	-325.1537780761719	33.78318405151368	-550.0983886718751	nan	nan	nan	
